# xmcd
#
# Track frame offsets:
#	150
#	14868
#	24853
#
# Disc length: 550 seconds
#
# Revision: 0
# Processed by: cddbd v1.5.2PL0 Copyright (c) Steve Scherf et al.
# Submitted via: audiograbber 1.83.01
#
DISCID=1b022403
DTITLE=Vix and Her MsChiefs - Live At Magic Garden EP
DYEAR=2014
DGENRE=Country
TTITLE0=All The Way From Birmingham
TTITLE1=Fame Is Your Driver
TTITLE2=I Sing Alone
EXTD=
EXTT0=
EXTT1=
EXTT2=
PLAYORDER=
